<svg width="80" height="80" viewBox="0 0 80 80" fill="none" xmlns="http://www.w3.org/2000/svg">
<rect width="80" height="80" rx="16" fill="url(#paint0_linear_1_30)"/>
<path d="M38.9953 54.1641C30.4406 41.8594 28.9172 40.5703 28.9172 36C28.9172 29.7891 33.8977 24.75 40.1672 24.75C46.3781 24.75 51.4172 29.7891 51.4172 36C51.4172 40.5703 49.8352 41.8594 41.2805 54.1641C40.7531 54.9844 39.5227 54.9844 38.9953 54.1641ZM40.1672 40.6875C42.7453 40.6875 44.8547 38.6367 44.8547 36C44.8547 33.4219 42.7453 31.3125 40.1672 31.3125C37.5305 31.3125 35.4797 33.4219 35.4797 36C35.4797 38.6367 37.5305 40.6875 40.1672 40.6875Z" fill="#10B981"/>
<defs>
<linearGradient id="paint0_linear_1_30" x1="0" y1="0" x2="80" y2="80" gradientUnits="userSpaceOnUse">
<stop stop-color="#D1FAE5"/>
<stop offset="1" stop-color="#A7F3D0"/>
</linearGradient>
</defs>
</svg>
