<svg width="80" height="80" viewBox="0 0 80 80" fill="none" xmlns="http://www.w3.org/2000/svg">
<rect width="80" height="80" rx="16" fill="url(#paint0_linear_1_24)"/>
<path d="M43.9406 39.0469L45.2297 41.625H51.6164L40.8938 52.582C40.4836 52.9922 39.8391 52.9922 39.4289 52.582L28.7063 41.625H34.2141L35.9719 37.4648L39.3117 44.8477C39.6633 45.5508 40.6594 45.6094 41.0109 44.9062L43.9406 39.0469ZM52.9055 29.0859C55.7766 32.0156 55.8938 36.6445 53.3742 39.75H46.4016L44.7609 36.5273C44.4094 35.8242 43.4133 35.8242 43.0617 36.5273L40.1906 42.2695L36.7922 34.7109C36.4406 33.9492 35.3859 33.9492 35.093 34.7109L32.9836 39.75H27.007C24.4289 36.6445 24.5461 32.0156 27.4172 29.0859L27.5344 28.9688C30.5813 25.8633 35.5031 25.8633 38.55 28.9688L40.1906 30.6094L41.7727 28.9688C44.8195 25.8633 49.7414 25.8633 52.7883 28.9688L52.9055 29.0859Z" fill="#3B82F6"/>
<defs>
<linearGradient id="paint0_linear_1_24" x1="0" y1="0" x2="80" y2="80" gradientUnits="userSpaceOnUse">
<stop stop-color="#DBEAFE"/>
<stop offset="1" stop-color="#BFDBFE"/>
</linearGradient>
</defs>
</svg>
