<svg width="63" height="61" viewBox="0 0 63 61" fill="none" xmlns="http://www.w3.org/2000/svg">
<path d="M45.9375 16.521H45.9637M18.375 5.0835H44.625C51.8737 5.0835 57.75 10.7732 57.75 17.7918V43.2085C57.75 50.2271 51.8737 55.9168 44.625 55.9168H18.375C11.1263 55.9168 5.25 50.2271 5.25 43.2085V17.7918C5.25 10.7732 11.1263 5.0835 18.375 5.0835ZM42 28.8989C42.324 31.0142 41.9508 33.1745 40.9336 35.0727C39.9164 36.9708 38.307 38.51 36.3343 39.4714C34.3615 40.4328 32.1259 40.7675 29.9454 40.4277C27.765 40.088 25.7506 39.0912 24.1889 37.5791C22.6273 36.067 21.5978 34.1166 21.2469 32.0054C20.8961 29.8941 21.2417 27.7295 22.2346 25.8194C23.2275 23.9092 24.8172 22.3509 26.7776 21.366C28.7379 20.3811 30.9691 20.0198 33.1537 20.3335C35.3822 20.6535 37.4452 21.6589 39.0382 23.2013C40.6312 24.7437 41.6695 26.7412 42 28.8989Z" stroke="#1E1E1E" stroke-width="3.5" stroke-linecap="round" stroke-linejoin="round"/>
</svg>
