<svg width="93" height="20" viewBox="0 0 93 20" fill="none" xmlns="http://www.w3.org/2000/svg">
<path d="M2.1582 19.7539H0V1.19336H10.334V3.09766H2.1582V9.90234H9.83887V11.7939H2.1582V19.7539ZM15.2217 5.83984V19.7539H13.1143V5.83984H15.2217ZM14.1934 0.634766C14.5404 0.634766 14.8366 0.749023 15.082 0.977539C15.3359 1.19759 15.4629 1.5446 15.4629 2.01855C15.4629 2.48405 15.3359 2.83105 15.082 3.05957C14.8366 3.28809 14.5404 3.40234 14.1934 3.40234C13.8294 3.40234 13.5247 3.28809 13.2793 3.05957C13.0423 2.83105 12.9238 2.48405 12.9238 2.01855C12.9238 1.5446 13.0423 1.19759 13.2793 0.977539C13.5247 0.749023 13.8294 0.634766 14.1934 0.634766ZM24.1846 18.2812C24.5316 18.2812 24.887 18.2516 25.251 18.1924C25.6149 18.1331 25.9111 18.0612 26.1396 17.9766V19.6143C25.8942 19.7243 25.5514 19.8174 25.1113 19.8936C24.6797 19.9697 24.2565 20.0078 23.8418 20.0078C23.1055 20.0078 22.4368 19.8809 21.8359 19.627C21.235 19.3646 20.7526 18.9245 20.3887 18.3066C20.0332 17.6888 19.8555 16.834 19.8555 15.7422V7.49023H17.875V6.46191L19.8682 5.63672L20.7061 2.61523H21.9756V5.83984H26.0508V7.49023H21.9756V15.6787C21.9756 16.5505 22.1745 17.2021 22.5723 17.6338C22.9785 18.0654 23.516 18.2812 24.1846 18.2812ZM34.9756 19.7539H32.8047V3.09766H26.9648V1.19336H40.79V3.09766H34.9756V19.7539ZM49.6006 5.58594C49.8799 5.58594 50.1719 5.60286 50.4766 5.63672C50.7812 5.66211 51.0521 5.7002 51.2891 5.75098L51.0225 7.70605C50.7939 7.64681 50.54 7.60026 50.2607 7.56641C49.9814 7.53255 49.7191 7.51562 49.4736 7.51562C48.915 7.51562 48.3861 7.62988 47.8867 7.8584C47.3958 8.07845 46.9642 8.40007 46.5918 8.82324C46.2194 9.23796 45.9274 9.74154 45.7158 10.334C45.5042 10.918 45.3984 11.5697 45.3984 12.2891V19.7539H43.2783V5.83984H45.0303L45.2588 8.4043H45.3477C45.6354 7.88802 45.9824 7.41829 46.3887 6.99512C46.7949 6.56348 47.2646 6.2207 47.7979 5.9668C48.3395 5.71289 48.9404 5.58594 49.6006 5.58594ZM59.1221 5.61133C60.7809 5.61133 62.0124 5.98372 62.8164 6.72852C63.6204 7.47331 64.0225 8.66243 64.0225 10.2959V19.7539H62.4863L62.0801 17.6973H61.9785C61.5892 18.2051 61.1829 18.6325 60.7598 18.9795C60.3366 19.318 59.8457 19.5762 59.2871 19.7539C58.737 19.9232 58.0599 20.0078 57.2559 20.0078C56.4095 20.0078 55.6562 19.8597 54.9961 19.5635C54.3444 19.2673 53.8281 18.8187 53.4473 18.2178C53.0749 17.6169 52.8887 16.8551 52.8887 15.9326C52.8887 14.5446 53.4388 13.4782 54.5391 12.7334C55.6393 11.9886 57.3151 11.5824 59.5664 11.5146L61.9658 11.4131V10.5625C61.9658 9.36068 61.7077 8.51855 61.1914 8.03613C60.6751 7.55371 59.9473 7.3125 59.0078 7.3125C58.2799 7.3125 57.5859 7.41829 56.9258 7.62988C56.2656 7.84147 55.6393 8.09115 55.0469 8.37891L54.3994 6.7793C55.0257 6.45768 55.7451 6.18262 56.5576 5.9541C57.3701 5.72559 58.2249 5.61133 59.1221 5.61133ZM61.9404 12.8984L59.8203 12.9873C58.0853 13.055 56.8623 13.3385 56.1514 13.8379C55.4404 14.3372 55.085 15.0439 55.085 15.958C55.085 16.7536 55.3262 17.3418 55.8086 17.7227C56.291 18.1035 56.93 18.2939 57.7256 18.2939C58.9613 18.2939 59.9727 17.9512 60.7598 17.2656C61.5469 16.5801 61.9404 15.5518 61.9404 14.1807V12.8984ZM73.9375 20.0078C72.6849 20.0078 71.5804 19.7497 70.624 19.2334C69.6676 18.7171 68.9229 17.93 68.3896 16.8721C67.8564 15.8141 67.5898 14.4811 67.5898 12.873C67.5898 11.1888 67.8691 9.81348 68.4277 8.74707C68.9948 7.6722 69.7734 6.87663 70.7637 6.36035C71.7539 5.84408 72.8796 5.58594 74.1406 5.58594C74.8346 5.58594 75.5033 5.65788 76.1465 5.80176C76.7982 5.93717 77.3314 6.11068 77.7461 6.32227L77.1113 8.08691C76.6882 7.91764 76.1973 7.7653 75.6387 7.62988C75.0885 7.49447 74.5723 7.42676 74.0898 7.42676C73.125 7.42676 72.321 7.63411 71.6777 8.04883C71.043 8.46354 70.5648 9.07292 70.2432 9.87695C69.93 10.681 69.7734 11.6712 69.7734 12.8477C69.7734 13.9733 69.9258 14.9339 70.2305 15.7295C70.5436 16.5251 71.0049 17.1344 71.6143 17.5576C72.2321 17.9723 73.0023 18.1797 73.9248 18.1797C74.6611 18.1797 75.3255 18.1035 75.918 17.9512C76.5104 17.7904 77.0479 17.6042 77.5303 17.3926V19.2715C77.0648 19.5085 76.5443 19.6904 75.9688 19.8174C75.4017 19.9443 74.7246 20.0078 73.9375 20.0078ZM82.9258 0V10.2578C82.9258 10.5964 82.9131 11.0111 82.8877 11.502C82.8623 11.9844 82.8411 12.4118 82.8242 12.7842H82.9131C83.0908 12.5641 83.349 12.2383 83.6875 11.8066C84.0345 11.375 84.3265 11.028 84.5635 10.7656L89.1846 5.83984H91.6602L86.0615 11.7812L92.0664 19.7539H89.5273L84.6143 13.165L82.9258 14.7139V19.7539H80.8311V0H82.9258Z" fill="url(#paint0_linear_1_55)"/>
<defs>
<linearGradient id="paint0_linear_1_55" x1="20.2907" y1="-32.7473" x2="103.261" y2="64.3846" gradientUnits="userSpaceOnUse">
<stop stop-color="#F97316"/>
<stop offset="1" stop-color="#FBBF24"/>
</linearGradient>
</defs>
</svg>
