<svg width="80" height="80" viewBox="0 0 80 80" fill="none" xmlns="http://www.w3.org/2000/svg">
<rect width="80" height="80" rx="16" fill="url(#paint0_linear_1_18)"/>
<path d="M42.973 30.375C41.3909 30.375 40.1605 29.1445 40.1605 27.5625C40.1605 26.0391 41.3909 24.75 42.973 24.75C44.4964 24.75 45.7855 26.0391 45.7855 27.5625C45.7855 29.1445 44.4964 30.375 42.973 30.375ZM48.4808 39.1641C49.4183 39.5742 49.7698 40.7461 49.3011 41.6836C48.8323 42.5625 47.7191 42.9727 46.8402 42.5039L45.4925 41.8008C44.6136 41.332 43.9105 40.5703 43.6175 39.6328L43.2659 38.6953L42.2698 42.6797L44.9652 45.6094C45.3753 46.0781 45.6683 46.6055 45.8441 47.25L47.1331 52.4648C47.3675 53.4609 46.7816 54.457 45.7269 54.6914C44.7308 54.9844 43.7347 54.3398 43.5003 53.3438L42.387 49.0664C42.2698 48.4805 41.9769 47.8945 41.5081 47.4258L38.0511 43.6172C37.1722 42.6797 36.8206 41.3906 37.1722 40.1602L38.0511 36.5859L36.4691 37.2305C36.0589 37.4062 35.7073 37.6992 35.5316 38.1094L35.1214 38.9297C34.6527 39.8672 33.5394 40.2188 32.6019 39.75C31.723 39.2812 31.3128 38.168 31.7816 37.2305L32.1917 36.4688C32.7777 35.2383 33.8323 34.2422 35.1214 33.7734C37.2894 32.8945 38.4613 32.25 40.5706 32.25C43.2659 32.3086 45.6683 34.125 46.5472 36.7031L47.1331 38.4609L48.4808 39.1641ZM35.0628 47.3672L36.2933 44.3789C36.8206 45.082 35.8245 43.9688 39.0472 47.4844L38.2855 49.4766C38.0511 49.9453 37.8167 50.4141 37.4652 50.7656L33.9495 54.2227C33.2464 54.9844 32.0159 54.9844 31.3128 54.2227C30.5511 53.5195 30.5511 52.2891 31.3128 51.5859L34.2425 48.6562C34.5941 48.3047 34.887 47.8359 35.0628 47.3672Z" fill="#F97316"/>
<defs>
<linearGradient id="paint0_linear_1_18" x1="0" y1="0" x2="80" y2="80" gradientUnits="userSpaceOnUse">
<stop stop-color="#FFEDD5"/>
<stop offset="1" stop-color="#FED7AA"/>
</linearGradient>
</defs>
</svg>
