<svg width="58" height="52" viewBox="0 0 58 52" fill="none" xmlns="http://www.w3.org/2000/svg">
<path d="M55.5833 6.49981C53.2691 7.96335 50.7067 9.08272 47.995 9.81481C46.5395 8.31442 44.6052 7.25098 42.4536 6.76832C40.3021 6.28566 38.0371 6.40707 35.965 7.11613C33.8929 7.82519 32.1137 9.08768 30.868 10.7329C29.6223 12.3781 28.9702 14.3265 29 16.3148V18.4815C24.753 18.5802 20.5447 17.7357 16.7499 16.0233C12.9551 14.3108 9.69156 11.7835 7.24996 8.66648C7.24996 8.66648 -2.41671 28.1665 19.3333 36.8331C14.3562 39.8621 8.42726 41.3808 2.41663 41.1665C24.1666 51.9998 50.75 41.1665 50.75 16.2498C50.7477 15.6463 50.683 15.0443 50.5566 14.4515C53.0231 12.2707 54.7636 9.51736 55.5833 6.49981Z" stroke="#1E1E1E" stroke-width="4" stroke-linecap="round" stroke-linejoin="round"/>
</svg>
