<svg width="80" height="80" viewBox="0 0 80 80" fill="none" xmlns="http://www.w3.org/2000/svg">
<rect width="80" height="80" rx="16" fill="url(#paint0_linear_1_36)"/>
<path d="M41.8664 26.0977C44.6203 35.3555 50.4797 37.8164 50.4797 44.3203C50.4797 50.1211 45.8508 54.75 40.1672 54.75C34.425 54.75 29.8547 50.1211 29.8547 44.3203C29.8547 37.8164 35.7141 35.2969 38.4094 26.0977C38.9367 24.2812 41.3977 24.3984 41.8664 26.0977ZM40.1672 51C40.6359 51 41.1047 50.5898 41.1047 50.0625C41.1047 49.5938 40.6359 49.125 40.1672 49.125C37.5305 49.125 35.4797 47.0742 35.4797 44.4375C35.4797 43.9688 35.0109 43.5 34.5422 43.5C34.0148 43.5 33.6047 43.9688 33.6047 44.4375C33.6047 48.0703 36.5344 51 40.1672 51Z" fill="#8B5CF6"/>
<defs>
<linearGradient id="paint0_linear_1_36" x1="0" y1="0" x2="80" y2="80" gradientUnits="userSpaceOnUse">
<stop stop-color="#EDE9FE"/>
<stop offset="1" stop-color="#DDD6FE"/>
</linearGradient>
</defs>
</svg>
