<svg width="61" height="65" viewBox="0 0 61 65" fill="none" xmlns="http://www.w3.org/2000/svg">
<path d="M57.2891 17.3877C56.9872 16.1023 56.3723 14.9246 55.5065 13.9736C54.6408 13.0225 53.5548 12.3317 52.3583 11.971C47.9866 10.8335 30.4999 10.8335 30.4999 10.8335C30.4999 10.8335 13.0133 10.8335 8.64161 12.0793C7.44512 12.44 6.35914 13.1308 5.49337 14.0819C4.6276 15.033 4.0127 16.2106 3.71078 17.496C2.9107 22.2235 2.51934 27.0193 2.54161 31.8231C2.51309 36.663 2.90448 41.4954 3.71078 46.2585C4.04364 47.5039 4.67231 48.6368 5.53606 49.5477C6.39982 50.4586 7.46945 51.1167 8.64161 51.4585C13.0133 52.7043 30.4999 52.7043 30.4999 52.7043C30.4999 52.7043 47.9866 52.7043 52.3583 51.4585C53.5548 51.0978 54.6408 50.407 55.5065 49.4559C56.3723 48.5049 56.9872 47.3272 57.2891 46.0418C58.083 41.3499 58.4744 36.5907 58.4583 31.8231C58.4868 26.9832 58.0954 22.1508 57.2891 17.3877Z" stroke="#1E1E1E" stroke-width="3.5" stroke-linecap="round" stroke-linejoin="round"/>
<path d="M24.7812 40.6793L39.3958 31.8231L24.7812 22.9668V40.6793Z" stroke="#1E1E1E" stroke-width="3.5" stroke-linecap="round" stroke-linejoin="round"/>
</svg>
